<svg xmlns="http://www.w3.org/2000/svg" xmlns:xlink="http://www.w3.org/1999/xlink" version="1.1" id="Layer_1" x="0px" y="0px" width="100%" viewBox="0 0 800 592" enable-background="new 0 0 800 592" xml:space="preserve">
<path fill="#ffffff" opacity="1.000000" stroke="none" d=" M585.999878,499.380798   C551.667908,499.381104 517.825867,499.896118 484.006775,499.235474   C450.552246,498.581970 422.733398,476.692871 416.924469,441.839172   C416.064850,436.681152 415.558380,431.348938 415.573914,425.988800   C415.703857,381.157623 415.488434,336.325134 415.722778,291.494812   C415.814209,274.002625 420.337616,257.626465 431.497559,243.719177   C444.021057,228.112686 460.246704,219.345261 480.439453,218.661591   C549.553955,216.321609 618.691284,218.280548 687.815430,217.655533   C695.339172,217.587494 695.345886,217.654541 695.347656,225.320389   C695.350708,238.319870 695.144958,251.323990 695.446777,264.316406   C695.560120,269.196808 693.939880,270.481415 689.188416,270.471558   C623.691345,270.335541 558.193848,270.378143 492.696472,270.397308   C489.548431,270.398224 486.434601,270.363617 483.287354,271.182129   C473.380493,273.758545 468.382416,279.745270 468.369507,290.096375   C468.312134,336.094452 468.300262,382.092712 468.369629,428.090759   C468.387085,439.647186 477.343506,447.593811 490.224731,447.609558   C533.556213,447.662628 576.887878,447.638977 620.219482,447.643005   C626.885864,447.643616 633.559570,447.445953 640.216003,447.700928   C644.335999,447.858734 645.760498,446.417358 645.718262,442.263855   C645.546875,425.432953 645.468506,408.596100 645.762695,391.768555   C645.849792,386.786194 644.563660,385.229370 639.388000,385.256683   C599.057373,385.469696 558.725159,385.373199 518.393433,385.371796   C516.893494,385.371735 515.388489,385.284760 513.894775,385.379730   C511.011627,385.563019 509.623413,384.478577 509.639130,381.392731   C509.715485,366.393860 509.709015,351.394226 509.647278,336.395233   C509.635529,333.539337 510.945770,332.601318 513.608459,332.657288   C517.772888,332.744812 521.940857,332.659149 526.107300,332.659027   C574.438721,332.657593 622.771423,332.862183 671.100708,332.538086   C686.167786,332.437042 697.674316,344.533630 697.505188,358.823273   C697.045532,397.649628 697.357239,436.484955 697.342712,475.316742   C697.337585,488.942291 687.014099,499.361664 673.494385,499.372223   C644.496216,499.394928 615.498108,499.380005 585.999878,499.380798  z"/>
<path fill="#ffffff" opacity="1.000000" stroke="none" d=" M386.642883,229.627838   C373.954926,244.318222 361.456207,258.703583 349.087769,273.200104   C338.205627,285.954559 327.548645,298.901337 316.643555,311.635864   C307.802277,321.960358 298.714783,332.073608 289.787231,342.324768   C285.539520,347.202240 281.457001,352.223694 277.202057,357.094666   C275.655792,358.864838 275.934967,360.368713 277.303345,361.941315   C283.943909,369.573242 290.627350,377.168152 297.232880,384.830292   C308.707001,398.139771 320.119995,411.501953 331.587128,424.817505   C340.674530,435.369659 349.850586,445.845703 358.902710,456.427917   C367.951935,467.006775 376.923706,477.652374 385.869843,488.318665   C388.584045,491.554779 392.360199,494.031860 393.561768,498.478912   C391.845642,499.921570 389.945129,499.347473 388.207733,499.351593   C368.544800,499.398315 348.866577,498.941833 329.226715,499.616852   C322.127594,499.860870 319.674011,495.091888 316.259369,491.264221   C306.669891,480.514740 297.451935,469.433502 288.102936,458.469879   C276.700562,445.098175 265.330383,431.699036 253.911560,418.341431   C249.914352,413.665558 245.755554,409.127197 241.787186,404.427521   C239.950195,402.251953 238.450577,402.759338 236.890732,404.576111   C228.464066,414.390839 220.038681,424.206696 211.628204,434.035278   C204.525925,442.335083 197.451996,450.659149 190.352173,458.961090   C181.728500,469.044769 173.077515,479.105164 164.467789,489.200745   C162.104446,491.971924 159.828125,494.818207 157.548294,497.659271   C156.510986,498.951935 155.166885,499.362579 153.586380,499.360535   C131.425232,499.332275 109.264076,499.316650 87.102966,499.277191   C86.625221,499.276337 86.147919,499.030182 85.319611,498.801636   C87.715889,492.924530 92.529182,488.958466 96.352692,484.395142   C113.506355,463.922302 130.945160,443.687622 148.349106,423.425446   C159.274063,410.706238 170.367386,398.131653 181.293167,385.413147   C187.886917,377.737457 194.273941,369.884491 200.819519,362.166901   C202.821747,359.806183 202.482803,358.091858 200.464020,355.739990   C181.557999,333.714630 162.830490,311.536224 143.972397,289.469513   C131.139053,274.452667 118.172943,259.549316 105.279503,244.583740   C99.115440,237.429031 92.970482,230.257767 86.846275,223.068939   C85.771194,221.806961 84.872780,220.409973 85.191193,218.563889   C86.778923,217.153961 88.688400,217.674347 90.437141,217.670532   C109.933464,217.627914 129.431061,217.750336 148.925339,217.545609   C152.854233,217.504364 155.607162,218.849411 158.013367,221.655869   C173.984222,240.283295 190.011063,258.862854 205.943222,277.523285   C216.270035,289.618469 226.457993,301.832123 236.742340,313.963745   C237.466537,314.818024 238.473633,315.432465 239.742615,316.484650   C246.023438,309.189026 252.156250,302.067261 258.286896,294.943634   C267.697449,284.008881 277.136047,273.098053 286.508270,262.130524   C296.848907,250.029678 307.290710,238.009125 317.357819,225.683517   C321.664551,220.410583 325.931793,217.169220 333.461121,217.432434   C351.935150,218.078308 370.446899,217.636429 388.943481,217.657516   C390.893341,217.659744 392.910034,217.360001 395.353973,218.602753   C393.315918,222.970306 389.745392,225.914520 386.642883,229.627838  z"/>
</svg>